<svg width="150" height="150" viewBox="0 0 150 150" fill="none" xmlns="http://www.w3.org/2000/svg">
	<path d="M128.941 106.906C125.446 106.906 122.307 106.089 119.523 104.455C116.739 102.758 114.517 100.433 112.859 97.4801C111.2 94.5268 110.371 91.1964 110.371 87.489C110.371 84.5984 110.904 81.8336 111.97 79.1944C113.036 76.5552 114.488 74.1988 116.324 72.1252C118.16 70.0515 120.322 68.4178 122.81 67.2239C125.298 65.9671 127.964 65.3387 130.807 65.3387C134.421 65.3387 137.649 66.2499 140.492 68.0722C143.395 69.8316 145.705 72.188 147.423 75.1414C149.141 78.0947 150 81.3309 150 84.8498C150 88.7457 149.2 92.3903 147.601 95.7835C146.061 99.1139 143.721 101.816 140.581 103.89C137.501 105.9 133.621 106.906 128.941 106.906ZM130.718 103.23C132.199 103.23 133.503 102.916 134.628 102.287C135.813 101.659 136.761 100.685 137.471 99.3652C138.182 98.0457 138.656 96.3176 138.893 94.1811C139.189 91.9818 139.337 89.6254 139.337 87.1119C139.337 83.7815 138.923 80.7653 138.093 78.0633C137.264 75.3613 136.109 73.1934 134.628 71.5596C133.147 69.9259 131.4 69.109 129.386 69.109C128.26 69.109 127.223 69.3289 126.276 69.7688C125.387 70.1458 124.558 70.8056 123.788 71.7482C122.721 73.0677 121.981 74.89 121.566 77.215C121.211 79.4772 121.033 82.1163 121.033 85.1325C121.033 88.1487 121.448 91.0393 122.277 93.8041C123.166 96.569 124.321 98.8311 125.743 100.591C127.223 102.35 128.882 103.23 130.718 103.23Z" fill="#0B78FF"/>
	<path d="M90.8849 106.906C87.6269 106.906 84.7539 106.026 82.266 104.267C79.778 102.507 77.8232 100.088 76.4015 97.0088C74.9799 93.867 74.269 90.3166 74.269 86.3579C74.269 82.5248 75.0983 79.0373 76.757 75.8954C78.4748 72.6907 80.7554 70.1458 83.5988 68.2607C86.4422 66.3756 89.5521 65.433 92.9286 65.433C95.4165 65.433 97.6379 65.9985 99.5927 67.1296C101.548 68.1978 103.088 69.7059 104.213 71.6539C105.398 73.539 105.99 75.6755 105.99 78.0633C105.99 80.3255 105.072 81.4566 103.236 81.4566H85.1982C84.3689 81.4566 83.7469 81.7079 83.3322 82.2106C82.9768 82.6505 82.7991 83.4988 82.7991 84.7555C82.7991 87.3947 83.3322 89.7825 84.3985 91.919C85.524 94.0555 87.0049 95.7521 88.8413 97.0088C90.6776 98.2656 92.7805 98.894 95.15 98.894C96.8678 98.894 98.4376 98.5484 99.8593 97.8571C101.34 97.1031 102.732 96.0977 104.035 94.8409C104.272 94.6524 104.48 94.4953 104.657 94.3697C104.835 94.1812 105.013 94.0869 105.191 94.0869C105.783 94.0869 106.079 94.4639 106.079 95.218C106.079 96.0977 105.724 97.1659 105.013 98.4227C104.302 99.8679 103.265 101.25 101.903 102.57C100.6 103.89 99.0004 104.926 97.1048 105.68C95.2092 106.497 93.1359 106.906 90.8849 106.906ZM85.1982 77.7806H91.5069C93.0471 77.7806 94.2022 77.7491 94.9723 77.6863C95.7423 77.6235 96.4828 77.4978 97.1936 77.3093C97.4898 77.2464 97.6972 76.9951 97.8156 76.5552C97.9341 76.0525 97.9933 75.487 97.9933 74.8586C97.9933 73.162 97.3714 71.7482 96.1274 70.6171C94.9426 69.4232 93.4617 68.8262 91.6846 68.8262C90.4407 68.8262 89.2263 69.2347 88.0416 70.0516C86.8568 70.8056 85.8794 71.7796 85.1093 72.9735C84.3393 74.1674 83.9838 75.3927 84.0431 76.6495C84.0431 77.4035 84.4281 77.7806 85.1982 77.7806Z" fill="#0B78FF"/>
	<path d="M47.3293 107C44.7821 107 42.3534 106.654 40.0431 105.963C37.7921 105.272 35.7189 104.235 33.8233 102.853C33.4679 102.539 33.1421 102.224 32.8459 101.91C32.5497 101.533 32.3127 101.125 32.135 100.685C31.6611 99.1139 31.3353 97.1974 31.1576 94.9352C30.9799 92.6102 30.9207 90.3795 30.9799 88.243C30.9799 87.8031 31.128 87.489 31.4242 87.3004C31.7796 87.1119 32.1943 87.0177 32.6682 87.0177C33.1421 87.0177 33.4975 87.1119 33.7344 87.3004C34.0306 87.4261 34.2379 87.7089 34.3564 88.1487C35.6596 92.8616 37.5552 96.5376 40.0431 99.1767C42.5311 101.816 45.3448 103.135 48.4844 103.135C50.4392 103.135 52.0978 102.664 53.4603 101.722C54.8227 100.779 55.8594 99.5538 56.5702 98.0457C57.281 96.5376 57.6365 94.9038 57.6365 93.1443C57.6365 90.945 57.2514 89.1227 56.4813 87.6775C55.7705 86.2322 54.6746 84.944 53.1937 83.813C51.7128 82.6191 49.8468 81.3623 47.5958 80.0427C45.1671 78.5346 42.7977 76.9637 40.4874 75.3299C38.1772 73.6333 36.2816 71.6539 34.8007 69.3918C33.3198 67.0668 32.5793 64.2077 32.5793 60.8144C32.5793 57.2955 33.4086 54.2165 35.0673 51.5773C36.7851 48.8753 39.1546 46.7702 42.1757 45.2621C45.1967 43.754 48.6917 43 52.6606 43C54.8523 43 56.896 43.2514 58.7916 43.7541C60.6872 44.2568 62.1977 44.7595 63.3232 45.2621C63.9748 45.5135 64.4487 45.8277 64.7449 46.2047C65.1003 46.5817 65.3669 47.1787 65.5446 47.9956C65.9 49.3152 66.1962 50.8861 66.4331 52.7084C66.7293 54.5307 66.8774 56.4472 66.8774 58.458C66.8774 59.2121 66.3443 59.5891 65.278 59.5891C64.8041 59.5891 64.3302 59.4634 63.8563 59.2121C63.3824 58.9607 63.0863 58.6151 62.9678 58.1753C61.9015 54.5307 60.4206 51.7658 58.525 49.8807C56.6887 47.9956 54.4081 47.053 51.6832 47.053C49.8468 47.053 48.2771 47.3986 46.9738 48.0898C45.6706 48.7182 44.634 49.7236 43.8639 51.106C43.0938 52.4256 42.7088 54.1537 42.7088 56.2901C42.7088 57.9239 43.2123 59.432 44.2193 60.8144C45.2856 62.1969 46.7369 63.5479 48.5732 64.8675C50.4688 66.187 52.5717 67.6323 54.882 69.2032C57.7253 70.9627 60.0948 72.7536 61.9904 74.5758C63.9452 76.3353 65.4261 78.3147 66.4331 80.514C67.4402 82.6505 67.9437 85.1954 67.9437 88.1487C67.9437 92.296 67.0847 95.7835 65.3669 98.6112C63.649 101.376 61.2499 103.481 58.1696 104.926C55.0893 106.309 51.4758 107 47.3293 107Z" fill="#0B78FF"/>
	<path d="M11.4623 106.906C9.56674 106.906 7.7304 106.623 5.9533 106.057C4.23543 105.555 2.66565 104.769 1.24397 103.701C0.829315 102.821 0.503513 101.439 0.266566 99.5538C0.0888552 97.6686 0 95.8149 0 93.9926C0 93.2386 0.503513 92.8616 1.51054 92.8616C1.9252 92.8616 2.28062 92.9872 2.5768 93.2386C2.87298 93.4899 3.08031 93.7727 3.19879 94.0869C4.20581 96.8517 5.4794 99.0825 7.01956 100.779C8.55972 102.413 10.3072 103.23 12.262 103.23C13.9206 103.23 15.2239 102.696 16.1716 101.627C17.1194 100.496 17.5933 99.2081 17.5933 97.7629C17.5933 96.0663 17.001 94.6524 15.8162 93.5214C14.6907 92.3903 13.1209 91.2278 11.1069 90.0339C9.27056 88.9656 7.61193 87.8346 6.13101 86.6406C4.70932 85.4467 3.58383 84.0957 2.75451 82.5876C1.9252 81.0167 1.51054 79.1944 1.51054 77.1208C1.51054 74.7958 2.07329 72.7536 3.19879 70.9941C4.32429 69.2347 5.89406 67.8522 7.90811 66.8468C9.9814 65.8414 12.3509 65.3387 15.0165 65.3387C16.9121 65.3387 18.6003 65.5587 20.0813 65.9985C21.6214 66.4384 22.6877 66.8782 23.2801 67.3181C23.754 67.9465 24.139 69.109 24.4352 70.8056C24.7314 72.4394 24.8794 74.1674 24.8794 75.9897C24.8794 76.5552 24.4352 76.838 23.5466 76.838C23.132 76.838 22.7173 76.7123 22.3026 76.461C21.888 76.2096 21.6214 75.9583 21.503 75.7069C20.7329 73.3819 19.7555 71.6225 18.5707 70.4286C17.386 69.2347 16.0236 68.6377 14.4834 68.6377C13.1209 68.6377 11.877 69.109 10.7515 70.0515C9.68521 70.9313 9.15208 72.188 9.15208 73.8218C9.15208 75.1414 9.6556 76.3353 10.6626 77.4035C11.7289 78.4718 13.2394 79.5714 15.1942 80.7025C18.9262 82.839 21.6214 84.8812 23.2801 86.8292C24.9387 88.7143 25.768 91.2592 25.768 94.4639C25.768 98.297 24.524 101.345 22.0361 103.607C19.5481 105.806 16.0235 106.906 11.4623 106.906Z" fill="#0B78FF"/>
</svg>
