<?xml version="1.0" standalone="no"?>
<!DOCTYPE svg PUBLIC "-//W3C//DTD SVG 20010904//EN"
 "http://www.w3.org/TR/2001/REC-SVG-20010904/DTD/svg10.dtd">
<svg version="1.0" xmlns="http://www.w3.org/2000/svg"
 width="700.000000pt" height="700.000000pt" viewBox="0 0 700.000000 700.000000"
 preserveAspectRatio="xMidYMid meet">
<metadata>
Created by potrace 1.14, written by Peter Selinger 2001-2017
</metadata>
<g transform="translate(0.000000,700.000000) scale(0.100000,-0.100000)"
fill="#000000" stroke="none">
<path d="M1680 6993 c-66 -7 -237 -38 -270 -48 -10 -3 -27 -8 -37 -10 -83 -16
-232 -76 -373 -148 -338 -174 -637 -479 -802 -818 -73 -150 -87 -184 -123
-307 -75 -263 -70 -114 -70 -2152 0 -1614 3 -1897 20 -1960 2 -8 6 -31 9 -50
18 -117 88 -325 158 -465 148 -297 368 -546 643 -728 207 -136 485 -247 710
-281 22 -4 56 -10 75 -13 19 -4 854 -8 1855 -9 1990 -3 1894 -5 2139 56 138
35 264 83 391 149 88 46 241 143 281 178 11 10 43 38 72 62 254 209 468 541
565 876 24 83 29 103 43 175 2 14 6 35 9 46 3 12 8 50 12 85 10 82 10 3642 1
3729 -88 783 -688 1441 -1460 1600 -51 10 -109 22 -128 26 -34 8 -3652 14
-3720 7z m3227 -944 c290 -6 577 -131 788 -343 170 -171 274 -354 323 -571 30
-131 34 -176 34 -420 0 -299 4 -273 -34 -228 -210 246 -538 442 -833 499 -11
2 -33 7 -50 10 -33 8 -51 10 -135 20 -56 7 -2991 12 -3021 6 -14 -3 -16 -24
-15 -165 l1 -162 1510 -1 c831 -1 1526 -4 1545 -8 19 -3 60 -11 90 -17 343
-65 665 -310 823 -624 63 -125 107 -261 123 -376 5 -41 14 -569 9 -569 -1 0
-53 51 -116 113 -107 105 -228 198 -344 262 -69 38 -218 102 -257 110 -18 4
-37 11 -43 15 -8 5 -54 17 -135 35 -3 0 -27 5 -55 9 -27 4 -63 10 -80 13 -16
3 -703 6 -1525 7 -822 2 -1515 6 -1540 10 -139 22 -264 62 -374 117 -417 212
-670 631 -661 1092 2 79 13 196 21 208 2 3 6 21 9 40 21 118 111 312 203 436
206 277 530 459 857 480 50 3 91 6 92 7 2 2 2690 -3 2790 -5z m-3635 -2446
c210 -140 444 -228 688 -259 30 -4 725 -8 1545 -9 820 -2 1501 -6 1515 -9 14
-3 50 -10 80 -16 80 -15 200 -56 288 -100 310 -154 542 -440 626 -772 30 -115
36 -174 36 -308 -1 -120 -3 -146 -26 -250 -105 -481 -482 -846 -964 -932 -98
-17 -2970 -19 -3094 -2 -389 55 -729 296 -900 639 -64 128 -90 206 -118 355
-10 53 -20 568 -11 582 2 4 27 -18 55 -50 65 -71 58 -65 148 -141 216 -185
494 -311 790 -357 80 -12 3090 -12 3091 0 4 42 3 319 -1 325 -3 4 -666 7
-1475 7 -808 0 -1503 3 -1544 7 -131 12 -287 59 -416 125 -279 143 -493 393
-590 690 -51 154 -58 210 -60 503 l-2 275 116 -116 c79 -79 150 -139 223 -187z"/>
</g>
</svg>
