<?xml version="1.0" standalone="no"?>
<!DOCTYPE svg PUBLIC "-//W3C//DTD SVG 20010904//EN"
 "http://www.w3.org/TR/2001/REC-SVG-20010904/DTD/svg10.dtd">
<svg version="1.0" xmlns="http://www.w3.org/2000/svg"
 width="700.000000pt" height="700.000000pt" viewBox="0 0 700.000000 700.000000"
 preserveAspectRatio="xMidYMid meet">
<metadata>
Created by potrace 1.14, written by Peter Selinger 2001-2017
</metadata>
<g transform="translate(0.000000,700.000000) scale(0.100000,-0.100000)"
fill="#000000" stroke="none">
<path d="M388 6559 c-168 -18 -318 -144 -369 -311 -18 -61 -19 -128 -18 -2433
0 -1376 4 -2395 9 -2430 11 -68 13 -80 30 -150 7 -27 17 -54 21 -60 5 -5 9
-15 9 -22 0 -25 62 -148 115 -228 56 -84 163 -200 230 -250 22 -17 42 -33 45
-36 10 -11 150 -90 197 -110 116 -50 204 -72 338 -85 98 -10 5523 -11 5615 -1
298 30 475 353 344 624 -57 116 -193 220 -314 238 -24 4 -1288 7 -2808 7
-1734 0 -2778 4 -2802 10 -48 13 -114 72 -136 123 -17 38 -18 184 -19 2385 -1
1908 -3 2355 -14 2400 -50 209 -255 351 -473 329z"/>
<path d="M6020 5674 c-120 -32 -109 -23 -895 -806 l-750 -748 -408 408 c-258
258 -428 421 -462 441 -74 45 -142 61 -244 57 -91 -3 -142 -19 -221 -68 -25
-15 -406 -389 -846 -830 -696 -697 -806 -811 -831 -863 -36 -73 -44 -102 -49
-180 -12 -222 150 -419 370 -453 113 -18 239 13 326 80 14 10 305 299 648 641
l622 621 423 -420 c329 -328 433 -426 470 -443 156 -71 321 -60 452 30 56 38
1847 1836 1873 1879 119 203 61 466 -132 594 -101 67 -233 90 -346 60z"/>
</g>
</svg>
