<?xml version="1.0" standalone="no"?>
<!DOCTYPE svg PUBLIC "-//W3C//DTD SVG 20010904//EN"
 "http://www.w3.org/TR/2001/REC-SVG-20010904/DTD/svg10.dtd">
<svg version="1.0" xmlns="http://www.w3.org/2000/svg"
 width="700.000000pt" height="700.000000pt" viewBox="0 0 700.000000 700.000000"
 preserveAspectRatio="xMidYMid meet">
<metadata>
Created by potrace 1.14, written by Peter Selinger 2001-2017
</metadata>
<g transform="translate(0.000000,700.000000) scale(0.100000,-0.100000)"
fill="#000000" stroke="none">
<path d="M2350 4988 c-74 -6 -131 -14 -165 -24 -5 -2 -23 -6 -40 -9 -50 -10
-176 -64 -237 -101 -197 -120 -328 -301 -373 -519 -11 -51 -14 -247 -5 -310
39 -266 190 -441 615 -711 281 -179 358 -233 408 -289 38 -42 98 -140 109
-179 6 -23 13 -48 16 -56 2 -8 6 -58 8 -110 6 -157 -38 -280 -132 -374 -83
-83 -155 -112 -284 -115 -281 -7 -518 226 -647 634 -14 44 -30 86 -35 92 -27
34 -131 22 -140 -15 -6 -23 -2 -217 6 -328 9 -121 40 -266 65 -307 66 -106
323 -226 543 -252 83 -10 255 -8 344 4 223 31 403 112 532 240 68 68 155 197
167 249 2 10 11 35 19 57 31 86 45 197 42 340 -4 146 -6 168 -33 250 -65 205
-215 376 -493 563 -219 148 -345 235 -400 276 -89 66 -177 163 -210 230 -69
140 -34 356 75 468 68 69 190 112 315 111 225 -1 412 -178 504 -474 22 -73 52
-101 114 -107 38 -3 52 0 66 14 17 16 18 31 12 140 -3 67 -8 128 -10 135 -3 8
-7 32 -10 54 -17 131 -48 249 -73 277 -25 29 -123 72 -229 101 -161 45 -288
58 -444 45z"/>
<path d="M585 3944 c-11 -2 -45 -9 -75 -15 -93 -18 -213 -82 -284 -152 -103
-101 -152 -220 -153 -372 -3 -231 109 -398 377 -564 240 -149 329 -227 354
-312 40 -133 -8 -265 -117 -321 -42 -21 -132 -29 -188 -16 -118 27 -230 146
-315 336 -51 113 -80 145 -127 137 -58 -11 -59 -15 -53 -164 9 -224 30 -318
79 -355 108 -83 268 -129 447 -130 175 -1 259 15 375 70 195 94 297 271 296
518 0 201 -81 345 -271 486 -59 44 -256 170 -265 170 -4 0 -23 12 -43 28 -20
15 -46 34 -57 42 -56 42 -113 112 -125 155 -47 168 64 309 241 308 128 -1 219
-82 299 -266 36 -82 58 -104 112 -111 63 -8 72 10 65 121 -12 192 -46 312 -96
338 -30 15 -139 51 -186 61 -38 8 -263 14 -290 8z"/>
<path d="M4202 3934 c-166 -29 -304 -103 -440 -236 -192 -188 -293 -438 -294
-723 -1 -313 93 -575 270 -752 105 -105 215 -167 353 -199 55 -13 238 -12 303
2 224 47 405 185 511 391 41 79 55 153 35 178 -19 23 -34 19 -91 -27 -176
-144 -259 -180 -407 -181 -158 0 -265 46 -382 163 -123 122 -188 278 -194 459
-3 105 9 148 48 172 26 16 65 18 480 18 263 0 461 4 476 9 68 26 89 112 66
262 -17 109 -91 237 -186 323 -138 125 -339 176 -548 141z m203 -174 c65 -32
131 -101 150 -161 21 -63 18 -173 -5 -194 -28 -25 -108 -33 -361 -34 -276 -2
-270 -4 -263 84 9 130 137 278 277 320 61 19 145 12 202 -15z"/>
<path d="M5945 3936 c-215 -41 -432 -183 -579 -380 -91 -122 -180 -327 -202
-461 -10 -62 -11 -286 -2 -341 48 -287 239 -551 479 -661 219 -101 524 -107
771 -16 190 71 385 255 473 448 85 188 110 307 109 520 0 111 -5 157 -23 225
-52 198 -179 382 -350 509 -63 47 -189 114 -246 131 -131 38 -306 49 -430 26z
m214 -187 c146 -64 262 -253 315 -514 45 -221 30 -622 -30 -802 -52 -157 -176
-248 -339 -247 -55 1 -81 6 -120 27 -139 71 -252 269 -310 542 -22 101 -24
129 -20 340 5 330 38 465 142 576 92 98 242 131 362 78z"/>
</g>
</svg>
