<svg width="150" height="150" viewBox="0 0 150 150" fill="none" xmlns="http://www.w3.org/2000/svg">
    <path d="M18.75 18.75C18.75 13.5645 14.5605 9.375 9.375 9.375C4.18945 9.375 0 13.5645 0 18.75V117.188C0 130.137 10.4883 140.625 23.4375 140.625H140.625C145.811 140.625 150 136.436 150 131.25C150 126.064 145.811 121.875 140.625 121.875H23.4375C20.8594 121.875 18.75 119.766 18.75 117.188V18.75ZM137.871 44.1211C141.533 40.459 141.533 34.5117 137.871 30.8496C134.209 27.1875 128.262 27.1875 124.6 30.8496L93.75 61.7285L76.9336 44.9121C73.2715 41.25 67.3242 41.25 63.6621 44.9121L30.8496 77.7246C27.1875 81.3867 27.1875 87.334 30.8496 90.9961C34.5117 94.6582 40.459 94.6582 44.1211 90.9961L70.3125 64.834L87.1289 81.6504C90.791 85.3125 96.7383 85.3125 100.4 81.6504L137.9 44.1504L137.871 44.1211Z" fill="#0B78FF"/>
</svg>
